<svg width="1203" height="400" viewBox="0 0 1203 400" fill="none" xmlns="http://www.w3.org/2000/svg">
<path d="M1 291C1 291 132.5 51.4999 261.5 15.5C390.5 -20.4999 1202 23 1202 23V1H1V291Z" fill="black"/>
<path d="M1202 276C1202 276 487 96.9998 324 134C161 171 1 399.5 1 399.5H1202V276Z" fill="black"/>
<path d="M1 291C1 291 132.5 51.4999 261.5 15.5C390.5 -20.4999 1202 23 1202 23M1 291V399.5M1 291V1H1202V23M1202 23V276M1202 276C1202 276 487 96.9998 324 134C161 171 1 399.5 1 399.5M1202 276V399.5H1" stroke="black"/>
</svg>
